#!OML:ASF H:\BabyWalks\Project 1\Capture day 1\Session 1\baby.ASF
:FULLY-SPECIFIED
:DEGREES
237
root -14.3669 16.0226 -2.37533 114.124 -85.758 -131.52
lowerback 11.9639 0.252458 0.60903
upperback 3.28834 0.304022 0.633174
thorax -3.26544 0.0927354 0.274286
lowerneck -7.12633 -0.31597 4.42204
upperneck 5.72778 -0.585664 -4.02049
head 3.09883 -0.345746 -2.13843
rclavicle -6.95746e-016 -4.57205e-015
rhumerus 23.1329 -6.21296 -65.302
rradius 68.518
rwrist 21.85
rhand 22.8411 -23.9852
rfingers 7.12502
rthumb 47.172 -46.5753
lclavicle -6.95746e-016 -4.57205e-015
lhumerus 23.3076 0.556223 61.31
lradius 73.5064
lwrist -6.53767
lhand 25.4659 31.0911
lfingers 7.12502
lthumb 49.5886 52.5272
rfemur 1.93073 -12.7904 10.8607
rtibia 54.207
rfoot -32.3928 -9.36596
rtoes -12.8915
lfemur 1.68294 12.2334 0.887524
ltibia 51.6272
lfoot -35.3178 -8.16851
ltoes -13.2843
238
root -14.3667 16.0213 -2.37416 113.683 -85.7832 -131.09
lowerback 12.0083 0.256764 0.620559
upperback 3.26292 0.312214 0.623341
thorax -3.31608 0.0969833 0.256243
lowerneck -7.11523 -0.309887 4.29137
upperneck 5.74429 -0.575785 -3.84639
head 3.10112 -0.337007 -2.05535
rclavicle 4.19933e-015 3.57812e-015
rhumerus 22.9836 -6.24533 -65.2264
rradius 68.5124
rwrist 21.8872
rhand 22.8513 -24.0125
rfingers 7.12502
rthumb 47.1815 -46.5983
lclavicle 4.19933e-015 3.57812e-015
lhumerus 23.2528 0.550448 61.3897
lradius 73.466
lwrist -6.55053
lhand 25.431 31.0475
lfingers 7.12502
lthumb 49.5566 52.4999
rfemur 1.95364 -12.8129 10.8427
rtibia 54.2098
rfoot -32.4027 -9.3864
rtoes -12.9792
lfemur 1.66624 12.2139 0.877468
ltibia 51.6587
lfoot -35.3481 -8.16517
ltoes -13.3213
239
root -14.3672 16.0176 -2.37406 113.098 -85.7552 -130.522
lowerback 11.9846 0.249544 0.632363
upperback 3.27414 0.304415 0.650927
thorax -3.29149 0.0929402 0.27949
lowerneck -7.16071 -0.35465 4.28895
upperneck 5.77971 -0.634899 -3.87081
head 3.11934 -0.367631 -2.06712
rclavicle -2.21148e-015 1.51076e-014
rhumerus 22.9279 -6.22521 -65.1472
rradius 68.4627
rwrist 21.8803
rhand 22.8696 -24.1012
rfingers 7.12502
rthumb 47.1983 -46.6796
lclavicle -2.21148e-015 1.51076e-014
lhumerus 23.181 0.610473 61.4631
lradius 73.4335
lwrist -6.59589
lhand 25.4418 31.126
lfingers 7.12502
lthumb 49.5664 52.5734
rfemur 1.98318 -12.8389 10.8792
rtibia 54.2075
rfoot -32.41 -9.38816
rtoes -12.9157
lfemur 1.65739 12.1607 0.922018
ltibia 51.6976
lfoot -35.3565 -8.13477
ltoes -13.4053
240
root -14.3684 16.0197 -2.37415 112.664 -85.8031 -130.106
lowerback 11.9782 0.249048 0.582265
upperback 3.27992 0.297621 0.652951
thorax -3.28229 0.0897507 0.310842
lowerneck -7.24228 -0.369639 4.21319
upperneck 5.86779 -0.653905 -3.7991
head 3.16364 -0.37645 -2.03258
rclavicle -6.03808e-015 1.59028e-014
rhumerus 22.8669 -6.2631 -65.0856
rradius 68.4085
rwrist 21.8733
rhand 22.9454 -24.0391
rfingers 7.12502
rthumb 47.2684 -46.5861
lclavicle -6.03808e-015 1.59028e-014
lhumerus 23.1479 0.625872 61.5409
lradius 73.4006
lwrist -6.62051
lhand 25.4974 31.2931
lfingers 7.12502
lthumb 49.6174 52.7144
rfemur 2.03272 -12.8672 10.8378
rtibia 54.1958
rfoot -32.4023 -9.39876
rtoes -12.9865
lfemur 1.65831 12.1825 0.91352
ltibia 51.7115
lfoot -35.372 -8.18474
ltoes -13.3989
241
root -14.3689 16.0181 -2.37257 111.862 -85.8351 -129.314
lowerback 11.9729 0.235058 0.576425
upperback 3.27914 0.278697 0.659257
thorax -3.28025 0.0804334 0.323453
lowerneck -7.20574 -0.388657 4.2309
upperneck 5.82176 -0.678504 -3.82854
head 3.13987 -0.389241 -2.04563
rclavicle -1.06847e-015 -4.17448e-015
rhumerus 22.7845 -6.31798 -65.0645
rradius 68.3434
rwrist 21.9296
rhand 22.945 -24.0037
rfingers 7.12502
rthumb 47.268 -46.551
lclavicle -1.06847e-015 -4.17448e-015
lhumerus 23.0208 0.640706 61.5892
lradius 73.4452
lwrist -6.64243
lhand 25.4833 31.3318
lfingers 7.12502
lthumb 49.6045 52.7597
rfemur 2.08389 -12.9373 10.8023
rtibia 54.1758
rfoot -32.4108 -9.36943
rtoes -12.9472
lfemur 1.62898 12.1378 0.90013
ltibia 51.7412
lfoot -35.3666 -8.21114
ltoes -13.3568
242
root -14.3705 16.017 -2.37421 111.262 -85.7936 -128.746
lowerback 11.9802 0.225346 0.584496
upperback 3.2725 0.267904 0.681709
thorax -3.29122 0.0750462 0.343823
lowerneck -7.16398 -0.388936 4.21186
upperneck 5.82091 -0.678458 -3.78625
head 3.13125 -0.387712 -2.02727
rclavicle -7.45443e-017 4.17448e-015
rhumerus 22.6852 -6.34537 -65.0769
rradius 68.3036
rwrist 21.9453
rhand 23.0721 -24.0646
rfingers 7.12502
rthumb 47.3855 -46.5591
lclavicle -7.45443e-017 4.17448e-015
lhumerus 22.9056 0.674523 61.62
lradius 73.4665
lwrist -6.72349
lhand 25.5122 31.3076
lfingers 7.12502
lthumb 49.631 52.722
rfemur 2.13188 -12.9164 10.8791
rtibia 54.159
rfoot -32.4139 -9.40769
rtoes -12.8844
lfemur 1.65101 12.0792 0.964944
ltibia 51.7524
lfoot -35.3803 -8.20773
ltoes -13.3197
243
root -14.3724 16.0168 -2.3745 110.224 -85.7323 -127.748
lowerback 11.9999 0.212582 0.651256
upperback 3.27741 0.259738 0.710971
thorax -3.29661 0.0704436 0.337815
lowerneck -7.1573 -0.397759 4.20631
upperneck 5.82371 -0.689992 -3.77836
head 3.13033 -0.393207 -2.02409
rclavicle 5.71506e-016 7.55382e-015
rhumerus 22.5882 -6.40814 -65.0849
rradius 68.239
rwrist 21.9704
rhand 23.0535 -24.0944
rfingers 7.12502
rthumb 47.3683 -46.5967
lclavicle 5.71506e-016 7.55382e-015
lhumerus 22.8849 0.686337 61.6836
lradius 73.4256
lwrist -6.77158
lhand 25.5195 31.3346
lfingers 7.12502
lthumb 49.6377 52.7455
rfemur 2.21262 -12.9223 10.9754
rtibia 54.1254
rfoot -32.4014 -9.44307
rtoes -12.8912
lfemur 1.67519 12.0524 1.08493
ltibia 51.7721
lfoot -35.3792 -8.22766
ltoes -13.4266
